# xmcd
#
# Track frame offsets:
#	150
#	27704
#	51642
#	66761
#	92138
#	108975
#	129176
#	140812
#	154715
#	174324
#	190361
#	208929
#	230727
#
# Disc length: 3405
#
# Revision: 2
# Processed by: cddbd v1.5.1PL0 Copyright (c) Steve Scherf et al.
# Submitted via: audiograbber 1.82.01
# Normalized: r1:TRMNUM
#
DISCID=c50d4b0d
DTITLE=Various Artist - White Buffalo
DYEAR=2003
DGENRE=
TTITLE0=Tatanka (Gran Dios Buffalo)
TTITLE1=White Buffalo (Buffalo Blanco)
TTITLE2=Rain Dancer (Danza De La Lluvia)
TTITLE3=Cheyennes Realm (La Vereda Del Cheyenne)
TTITLE4=Yapocha Breeze (La Gran Helada)
TTITLE5=Hope Of Hapitoe (La Esperanza Del Hapitoe)
TTITLE6=Yana-Hene-Yoll - Em (Oh! Grande Espiritu Hopi)
TTITLE7=Ly-O-Lay - Aleyola (La Danza Circular)
TTITLE8=Rainbow Song (Celebracion Del Arco Iris)
TTITLE9=Dawa (Cancion De Cuna)
TTITLE10=Sun Of The Desert (Sol Del Desierto)
TTITLE11=Ye - Ha Dela Dela (Danza Del Aguila)
TTITLE12=Pista de Datos
EXTD=
EXTT0=
EXTT1=
EXTT2=
EXTT3=
EXTT4=
EXTT5=
EXTT6=
EXTT7=
EXTT8=
EXTT9=
EXTT10=
EXTT11=
EXTT12=
PLAYORDER=
